<?xml version="1.0" standalone="no"?>
<svg xmlns="http://www.w3.org/2000/svg" viewBox="0 0 194 69" width="194" height="69"><g fill="#305699" color="#305699" transform="translate(74.661 0) scale(1) "><svg width="44.0" height="44.0" x="0.0" y="0.0" viewBox="0 0 44 44"><path fill="currentColor" fill-rule="nonzero" d="M43.01 35.34c.15.1.24.26.23.43v5.59c0 .2-.12.38-.3.47-1.74.82-3.57 1.23-5.4 1.23-1.82 0-3.64-.4-5.37-1.21-.02 0-.03 0-.04-.01-3.19-1.51-6.72-1.51-9.92 0-3.47 1.63-7.3 1.64-10.78.01 0 0-.01-.01-.02-.01-3.19-1.51-6.72-1.51-9.92 0-.16.08-.35.06-.5-.03a.524.524 0 0 1-.24-.44v-5.59c0-.2.12-.38.3-.47 3.48-1.63 7.31-1.64 10.79-.01 0 0 .01.01.02.01 3.19 1.5 6.72 1.51 9.92 0 3.47-1.63 7.3-1.63 10.77-.01.02 0 .03 0 .04.01 3.19 1.51 6.72 1.51 9.92 0 .16-.08.35-.06.5.03zm0-33.53c.15.1.24.26.23.44v5.58c0 .2-.12.38-.3.47-1.74.82-3.57 1.23-5.4 1.23-1.82 0-3.64-.4-5.37-1.21-.02-.01-.03-.01-.04-.02-3.19-1.5-6.72-1.5-9.92 0-3.47 1.63-7.3 1.64-10.78.01 0 0-.01-.01-.02-.01-3.19-1.5-6.72-1.51-9.92 0-.16.08-.35.06-.5-.03a.524.524 0 0 1-.24-.44V2.24c0-.2.12-.38.3-.47C4.53.14 8.36.13 11.84 1.76c0 0 .01.01.02.01 3.19 1.5 6.72 1.5 9.92 0 3.47-1.63 7.3-1.63 10.77-.01.02.01.03.01.04.02 3.19 1.51 6.72 1.5 9.92 0 .16-.08.35-.07.5.03zm0 11.18c.15.1.24.26.23.44v5.59c0 .2-.12.38-.3.47-1.74.82-3.57 1.23-5.4 1.23-1.82 0-3.64-.4-5.37-1.21-.02-.01-.03-.01-.04-.02-3.19-1.51-6.72-1.51-9.92 0-3.47 1.63-7.3 1.64-10.78.01 0 0-.01-.01-.02-.01-3.19-1.5-6.72-1.5-9.92 0-.16.08-.35.06-.5-.03a.524.524 0 0 1-.24-.44v-5.59c0-.2.12-.38.3-.47 3.48-1.63 7.31-1.64 10.79-.01 0 0 .01.01.02.01 3.19 1.5 6.72 1.5 9.92 0 3.47-1.64 7.3-1.64 10.77-.02.02.01.03.01.04.02 3.19 1.51 6.72 1.5 9.92 0 .16-.08.35-.07.5.03zm0 11.18c.15.09.24.26.23.43v5.6c0 .2-.12.38-.3.47-1.74.82-3.57 1.23-5.4 1.23-1.82 0-3.64-.4-5.37-1.21-.02-.01-.03-.01-.04-.02-3.19-1.5-6.72-1.51-9.92 0-3.47 1.63-7.3 1.64-10.78.01 0 0-.01-.01-.02-.01-3.2-1.51-6.72-1.51-9.92 0-.16.08-.35.06-.5-.03a.524.524 0 0 1-.24-.44v-5.59c0-.2.12-.38.3-.47 3.48-1.63 7.31-1.64 10.79-.01 0 0 .01.01.02.01 3.19 1.5 6.72 1.51 9.92 0 3.47-1.63 7.3-1.63 10.77-.01.02 0 .03 0 .04.01 3.19 1.5 6.72 1.51 9.92 0 .16-.08.35-.07.5.03z"></path></svg></g><path fill="#0b005d" fill-rule="nonzero" d="M4.87 16.66Q3.48 16.66 2.38 16.28Q1.27 15.91 0 15.12L0 15.12Q0.22 13.78 0.22 11.71L0.22 11.71Q0.77 11.57 1.51 11.57L1.51 11.57Q1.61 13.49 2.48 14.50Q3.36 15.50 5.21 15.50L5.21 15.50Q6.77 15.50 7.52 14.82Q8.28 14.14 8.28 13.01L8.28 13.01Q8.28 12.07 7.80 11.42Q7.32 10.78 6.62 10.36Q5.93 9.94 4.68 9.36L4.68 9.36Q3.24 8.66 2.38 8.11Q1.51 7.56 0.90 6.64Q0.29 5.71 0.29 4.32L0.29 4.32Q0.29 2.30 1.58 1.15Q2.88 0 5.11 0L5.11 0Q6.29 0 7.37 0.30Q8.45 0.60 9.12 1.06L9.12 1.06Q9.12 3.19 9.26 4.22L9.26 4.22Q8.74 4.44 7.92 4.44L7.92 4.44Q7.58 2.47 6.91 1.76Q6.24 1.06 5.09 1.06L5.09 1.06Q3.82 1.06 3.10 1.68Q2.38 2.30 2.38 3.43L2.38 3.43Q2.38 4.37 2.87 5.04Q3.36 5.71 4.07 6.14Q4.78 6.58 6.02 7.20L6.02 7.20Q7.44 7.87 8.29 8.42Q9.14 8.98 9.74 9.86Q10.34 10.75 10.34 12.05L10.34 12.05Q10.34 13.30 9.76 14.34Q9.17 15.38 7.93 16.02Q6.70 16.66 4.87 16.66L4.87 16.66ZM23.23 13.03Q23.88 13.15 24.29 13.56L24.29 13.56Q23.86 14.69 23.64 16.46L23.64 16.46L19.01 16.44Q15.55 16.44 13.44 16.49L13.44 16.49Q13.44 15.74 13.56 15.41L13.56 15.41Q14.16 15.36 14.46 15.22Q14.76 15.07 14.88 14.69Q15.00 14.30 15.00 13.54L15.00 13.54L15.00 7.22Q15.00 6.53 14.87 6.17Q14.74 5.81 14.44 5.66Q14.14 5.52 13.56 5.47L13.56 5.47Q13.44 5.11 13.44 4.39L13.44 4.39Q15.17 4.44 17.21 4.44L17.21 4.44Q21.62 4.44 23.11 4.39L23.11 4.39Q23.38 6.65 23.57 7.37L23.57 7.37Q23.16 7.63 22.49 7.63L22.49 7.63Q22.39 6.62 21.66 6.05Q20.93 5.47 19.08 5.47L19.08 5.47L17.21 5.47L17.21 9.89L18.41 9.89Q19.68 9.89 20.17 9.60Q20.66 9.31 20.69 8.54L20.69 8.54Q21.22 8.38 21.79 8.38L21.79 8.38Q21.74 8.98 21.74 10.39L21.74 10.39Q21.74 11.93 21.79 12.48L21.79 12.48Q21.14 12.48 20.74 12.34L20.74 12.34Q20.66 11.54 20.17 11.26Q19.68 10.97 18.41 10.97L18.41 10.97L17.21 10.97L17.21 13.49Q17.21 14.26 17.36 14.65Q17.52 15.05 17.92 15.20Q18.31 15.36 19.10 15.36L19.10 15.36L19.25 15.36Q20.64 15.36 21.40 15.12Q22.15 14.88 22.52 14.41Q22.90 13.94 23.23 13.03L23.23 13.03ZM37.42 13.63Q38.06 14.59 38.75 14.99Q39.43 15.38 40.44 15.43L40.44 15.43Q40.44 16.13 40.34 16.44L40.34 16.44Q38.30 16.44 36.89 16.61L36.89 16.61Q36.72 16.32 36.24 15.60L36.24 15.60L35.16 13.85Q34.27 12.36 32.81 11.42L32.81 11.42L32.04 11.45L31.34 11.42L31.34 13.61Q31.34 14.40 31.46 14.78Q31.58 15.17 31.86 15.31Q32.14 15.46 32.71 15.48L32.71 15.48Q32.81 15.77 32.81 16.49L32.81 16.49Q31.92 16.44 30.19 16.44L30.19 16.44Q28.92 16.44 27.58 16.49L27.58 16.49Q27.58 15.82 27.70 15.48L27.70 15.48Q28.30 15.43 28.60 15.29Q28.90 15.14 29.02 14.78Q29.14 14.42 29.14 13.70L29.14 13.70L29.14 7.20Q29.14 6.17 28.85 5.83Q28.56 5.50 27.70 5.45L27.70 5.45Q27.58 5.09 27.58 4.39L27.58 4.39Q28.49 4.44 30.22 4.44L30.22 4.44L31.94 4.42Q33.19 4.37 33.84 4.37L33.84 4.37Q36.14 4.37 37.32 5.26Q38.50 6.14 38.50 7.54L38.50 7.54Q38.50 8.93 37.61 9.83Q36.72 10.73 35.14 11.04L35.14 11.04Q35.74 11.40 36.13 11.87Q36.53 12.34 37.42 13.63L37.42 13.63ZM32.26 10.25Q33.98 10.25 35.09 9.64Q36.19 9.02 36.19 7.85L36.19 7.85Q36.19 5.40 32.83 5.40L32.83 5.40Q32.06 5.40 31.34 5.54L31.34 5.54L31.34 10.18Q31.85 10.25 32.26 10.25L32.26 10.25ZM53.16 13.03Q53.81 13.15 54.22 13.56L54.22 13.56Q53.78 14.69 53.57 16.46L53.57 16.46L48.94 16.44Q45.48 16.44 43.37 16.49L43.37 16.49Q43.37 15.74 43.49 15.41L43.49 15.41Q44.09 15.36 44.39 15.22Q44.69 15.07 44.81 14.69Q44.93 14.30 44.93 13.54L44.93 13.54L44.93 7.22Q44.93 6.53 44.80 6.17Q44.66 5.81 44.36 5.66Q44.06 5.52 43.49 5.47L43.49 5.47Q43.37 5.11 43.37 4.39L43.37 4.39Q45.10 4.44 47.14 4.44L47.14 4.44Q51.55 4.44 53.04 4.39L53.04 4.39Q53.30 6.65 53.50 7.37L53.50 7.37Q53.09 7.63 52.42 7.63L52.42 7.63Q52.32 6.62 51.59 6.05Q50.86 5.47 49.01 5.47L49.01 5.47L47.14 5.47L47.14 9.89L48.34 9.89Q49.61 9.89 50.10 9.60Q50.59 9.31 50.62 8.54L50.62 8.54Q51.14 8.38 51.72 8.38L51.72 8.38Q51.67 8.98 51.67 10.39L51.67 10.39Q51.67 11.93 51.72 12.48L51.72 12.48Q51.07 12.48 50.66 12.34L50.66 12.34Q50.59 11.54 50.10 11.26Q49.61 10.97 48.34 10.97L48.34 10.97L47.14 10.97L47.14 13.49Q47.14 14.26 47.29 14.65Q47.45 15.05 47.84 15.20Q48.24 15.36 49.03 15.36L49.03 15.36L49.18 15.36Q50.57 15.36 51.32 15.12Q52.08 14.88 52.45 14.41Q52.82 13.94 53.16 13.03L53.16 13.03ZM69.14 4.44Q70.06 4.44 71.16 4.39L71.16 4.39Q71.16 5.11 71.06 5.47L71.06 5.47Q70.56 5.52 70.30 5.74Q70.03 5.95 69.92 6.47Q69.82 6.98 69.82 7.99L69.82 7.99L69.82 16.46Q69.50 16.61 68.83 16.61L68.83 16.61L60.22 7.08L60.22 12.84Q60.22 13.87 60.35 14.40Q60.48 14.93 60.79 15.14Q61.10 15.36 61.70 15.41L61.70 15.41Q61.82 15.79 61.82 16.49L61.82 16.49Q60.53 16.44 59.69 16.44L59.69 16.44Q58.56 16.44 57.50 16.49L57.50 16.49Q57.50 15.79 57.62 15.41L57.62 15.41Q58.22 15.36 58.52 15.14Q58.82 14.93 58.96 14.40Q59.09 13.87 59.09 12.84L59.09 12.84L59.09 5.83L59.06 5.81Q58.90 5.64 58.63 5.58Q58.37 5.52 57.62 5.47L57.62 5.47Q57.50 5.04 57.50 4.39L57.50 4.39Q58.37 4.44 59.18 4.44L59.18 4.44Q59.93 4.44 60.70 4.39L60.70 4.39L68.69 13.34L68.69 7.99Q68.69 6.98 68.56 6.47Q68.42 5.95 68.11 5.74Q67.80 5.52 67.18 5.47L67.18 5.47Q67.08 4.92 67.08 4.39L67.08 4.39Q68.28 4.44 69.14 4.44L69.14 4.44ZM87.05 15.41Q87.17 15.77 87.17 16.49L87.17 16.49Q86.21 16.44 84.70 16.44L84.70 16.44Q83.11 16.44 82.15 16.49L82.15 16.49Q82.15 15.74 82.30 15.41L82.30 15.41Q82.85 15.34 83.08 15.20Q83.30 15.07 83.30 14.81L83.30 14.81Q83.30 14.59 83.06 14.06L83.06 14.06L82.58 13.03Q79.13 13.03 77.14 13.15L77.14 13.15L76.87 13.78Q76.63 14.33 76.63 14.64L76.63 14.64Q76.63 15.31 77.62 15.41L77.62 15.41Q77.76 15.84 77.76 16.49L77.76 16.49Q76.85 16.44 75.77 16.44L75.77 16.44Q74.83 16.44 74.06 16.49L74.06 16.49Q74.06 15.91 74.21 15.41L74.21 15.41Q74.74 15.31 75.02 14.96Q75.31 14.62 75.79 13.56L75.79 13.56L79.92 4.42Q80.38 4.32 80.88 4.32L80.88 4.32L85.30 13.49Q85.82 14.59 86.20 14.98Q86.57 15.36 87.05 15.41L87.05 15.41ZM77.62 12.05L82.10 12.05L80.66 9.02Q80.04 7.75 79.80 7.01L79.80 7.01Q79.61 7.61 79.33 8.20Q79.06 8.78 78.98 8.93L78.98 8.93L77.62 12.05ZM95.06 16.61Q93.74 16.61 92.68 16.34Q91.61 16.08 90.36 15.55L90.36 15.55Q90.62 13.94 90.55 12.77L90.55 12.77Q91.08 12.60 91.85 12.60L91.85 12.60Q91.90 14.09 92.80 14.76Q93.70 15.43 95.33 15.43L95.33 15.43Q96.72 15.43 97.52 15.00Q98.33 14.57 98.33 13.85L98.33 13.85Q98.33 13.34 97.93 12.97Q97.54 12.60 96.97 12.35Q96.41 12.10 95.33 11.71L95.33 11.71Q93.84 11.21 92.94 10.76Q92.04 10.32 91.38 9.54Q90.72 8.76 90.72 7.58L90.72 7.58Q90.72 5.98 91.93 5.14Q93.14 4.30 95.26 4.30L95.26 4.30Q96.38 4.30 97.50 4.51Q98.62 4.73 99.24 5.06L99.24 5.06Q99.22 5.33 99.22 5.88L99.22 5.88Q99.22 6.96 99.36 7.58L99.36 7.58Q98.86 7.85 98.04 7.85L98.04 7.85Q97.70 6.48 96.95 5.94Q96.19 5.40 95.09 5.40L95.09 5.40Q94.03 5.40 93.37 5.76Q92.71 6.12 92.71 6.82L92.71 6.82Q92.71 7.61 93.48 8.09Q94.25 8.57 95.88 9.14L95.88 9.14Q97.27 9.62 98.16 10.06Q99.05 10.49 99.67 11.22Q100.30 11.95 100.30 13.06L100.30 13.06Q100.30 14.64 99 15.62Q97.70 16.61 95.06 16.61L95.06 16.61ZM115.32 16.66Q113.11 16.66 111.37 15.59Q109.63 14.52 108.66 12.60Q107.69 10.68 107.69 8.21L107.69 8.21Q107.69 5.57 108.80 3.72Q109.92 1.87 111.76 0.94Q113.59 0 115.70 0L115.70 0Q117.17 0 118.42 0.30Q119.66 0.60 121.03 1.25L121.03 1.25Q120.77 2.50 120.77 4.97L120.77 4.97Q120.24 5.18 119.50 5.18L119.50 5.18Q119.40 2.78 118.51 1.88Q117.62 0.98 115.90 0.98L115.90 0.98Q113.95 0.98 112.68 1.90Q111.41 2.81 110.81 4.30Q110.21 5.78 110.21 7.56L110.21 7.56Q110.21 9.72 110.94 11.46Q111.67 13.20 113.06 14.20Q114.46 15.19 116.33 15.19L116.33 15.19Q117.46 15.19 118.66 14.81Q119.86 14.42 120.89 13.78L120.89 13.78Q121.03 13.90 121.16 14.12Q121.30 14.35 121.32 14.52L121.32 14.52Q119.86 15.65 118.48 16.15Q117.10 16.66 115.32 16.66L115.32 16.66ZM130.82 16.66Q128.76 16.66 127.18 15.89Q125.59 15.12 124.72 13.73Q123.84 12.34 123.84 10.49L123.84 10.49Q123.84 8.66 124.72 7.25Q125.59 5.83 127.19 5.05Q128.78 4.27 130.87 4.27L130.87 4.27Q132.94 4.27 134.52 5.04Q136.10 5.81 136.98 7.21Q137.86 8.62 137.86 10.44L137.86 10.44Q137.86 12.29 136.98 13.69Q136.10 15.10 134.51 15.88Q132.91 16.66 130.82 16.66L130.82 16.66ZM131.16 15.55Q133.10 15.55 134.24 14.26Q135.38 12.96 135.38 10.80L135.38 10.80Q135.38 9.24 134.76 8.00Q134.14 6.77 133.02 6.07Q131.90 5.38 130.51 5.38L130.51 5.38Q128.57 5.38 127.44 6.68Q126.31 7.99 126.31 10.13L126.31 10.13Q126.31 11.74 126.94 12.97Q127.56 14.21 128.66 14.88Q129.77 15.55 131.16 15.55L131.16 15.55ZM145.99 16.61Q144.67 16.61 143.60 16.34Q142.54 16.08 141.29 15.55L141.29 15.55Q141.55 13.94 141.48 12.77L141.48 12.77Q142.01 12.60 142.78 12.60L142.78 12.60Q142.82 14.09 143.72 14.76Q144.62 15.43 146.26 15.43L146.26 15.43Q147.65 15.43 148.45 15.00Q149.26 14.57 149.26 13.85L149.26 13.85Q149.26 13.34 148.86 12.97Q148.46 12.60 147.90 12.35Q147.34 12.10 146.26 11.71L146.26 11.71Q144.77 11.21 143.87 10.76Q142.97 10.32 142.31 9.54Q141.65 8.76 141.65 7.58L141.65 7.58Q141.65 5.98 142.86 5.14Q144.07 4.30 146.18 4.30L146.18 4.30Q147.31 4.30 148.43 4.51Q149.54 4.73 150.17 5.06L150.17 5.06Q150.14 5.33 150.14 5.88L150.14 5.88Q150.14 6.96 150.29 7.58L150.29 7.58Q149.78 7.85 148.97 7.85L148.97 7.85Q148.63 6.48 147.88 5.94Q147.12 5.40 146.02 5.40L146.02 5.40Q144.96 5.40 144.30 5.76Q143.64 6.12 143.64 6.82L143.64 6.82Q143.64 7.61 144.41 8.09Q145.18 8.57 146.81 9.14L146.81 9.14Q148.20 9.62 149.09 10.06Q149.98 10.49 150.60 11.22Q151.22 11.95 151.22 13.06L151.22 13.06Q151.22 14.64 149.93 15.62Q148.63 16.61 145.99 16.61L145.99 16.61ZM165.46 4.39Q165.38 5.69 165.62 7.51L165.62 7.51Q165.12 7.73 164.45 7.73L164.45 7.73Q164.40 6.58 163.84 6.02Q163.27 5.47 162.07 5.47L162.07 5.47L161.02 5.47L161.02 13.70Q161.02 14.45 161.15 14.80Q161.28 15.14 161.63 15.29Q161.98 15.43 162.70 15.48L162.70 15.48Q162.82 15.77 162.82 16.49L162.82 16.49Q161.04 16.44 159.91 16.44L159.91 16.44Q158.52 16.44 156.94 16.49L156.94 16.49Q156.94 15.77 157.06 15.48L157.06 15.48Q157.78 15.43 158.15 15.29Q158.52 15.14 158.66 14.78Q158.81 14.42 158.81 13.70L158.81 13.70L158.81 5.47L157.82 5.47Q156.86 5.47 156.35 5.72Q155.83 5.98 155.59 6.43Q155.35 6.89 155.18 7.73L155.18 7.73Q154.42 7.73 154.06 7.51L154.06 7.51Q154.42 5.88 154.42 4.39L154.42 4.39Q155.66 4.44 159.91 4.44L159.91 4.44Q164.23 4.44 165.46 4.39L165.46 4.39ZM180.07 15.41Q180.19 15.77 180.19 16.49L180.19 16.49Q179.23 16.44 177.72 16.44L177.72 16.44Q176.14 16.44 175.18 16.49L175.18 16.49Q175.18 15.74 175.32 15.41L175.32 15.41Q175.87 15.34 176.10 15.20Q176.33 15.07 176.33 14.81L176.33 14.81Q176.33 14.59 176.09 14.06L176.09 14.06L175.61 13.03Q172.15 13.03 170.16 13.15L170.16 13.15L169.90 13.78Q169.66 14.33 169.66 14.64L169.66 14.64Q169.66 15.31 170.64 15.41L170.64 15.41Q170.78 15.84 170.78 16.49L170.78 16.49Q169.87 16.44 168.79 16.44L168.79 16.44Q167.86 16.44 167.09 16.49L167.09 16.49Q167.09 15.91 167.23 15.41L167.23 15.41Q167.76 15.31 168.05 14.96Q168.34 14.62 168.82 13.56L168.82 13.56L172.94 4.42Q173.40 4.32 173.90 4.32L173.90 4.32L178.32 13.49Q178.85 14.59 179.22 14.98Q179.59 15.36 180.07 15.41L180.07 15.41ZM170.64 12.05L175.13 12.05L173.69 9.02Q173.06 7.75 172.82 7.01L172.82 7.01Q172.63 7.61 172.36 8.20Q172.08 8.78 172.01 8.93L172.01 8.93L170.64 12.05ZM188.09 16.61Q186.77 16.61 185.70 16.34Q184.63 16.08 183.38 15.55L183.38 15.55Q183.65 13.94 183.58 12.77L183.58 12.77Q184.10 12.60 184.87 12.60L184.87 12.60Q184.92 14.09 185.82 14.76Q186.72 15.43 188.35 15.43L188.35 15.43Q189.74 15.43 190.55 15.00Q191.35 14.57 191.35 13.85L191.35 13.85Q191.35 13.34 190.96 12.97Q190.56 12.60 190.00 12.35Q189.43 12.10 188.35 11.71L188.35 11.71Q186.86 11.21 185.96 10.76Q185.06 10.32 184.40 9.54Q183.74 8.76 183.74 7.58L183.74 7.58Q183.74 5.98 184.96 5.14Q186.17 4.30 188.28 4.30L188.28 4.30Q189.41 4.30 190.52 4.51Q191.64 4.73 192.26 5.06L192.26 5.06Q192.24 5.33 192.24 5.88L192.24 5.88Q192.24 6.96 192.38 7.58L192.38 7.58Q191.88 7.85 191.06 7.85L191.06 7.85Q190.73 6.48 189.97 5.94Q189.22 5.40 188.11 5.40L188.11 5.40Q187.06 5.40 186.40 5.76Q185.74 6.12 185.74 6.82L185.74 6.82Q185.74 7.61 186.50 8.09Q187.27 8.57 188.90 9.14L188.90 9.14Q190.30 9.62 191.18 10.06Q192.07 10.49 192.70 11.22Q193.32 11.95 193.32 13.06L193.32 13.06Q193.32 14.64 192.02 15.62Q190.73 16.61 188.09 16.61L188.09 16.61Z" transform="translate(0, 52)"></path></svg>